<?xml version="1.0" standalone="no"?>
<!DOCTYPE svg PUBLIC "-//W3C//DTD SVG 20010904//EN"
 "http://www.w3.org/TR/2001/REC-SVG-20010904/DTD/svg10.dtd">
<svg version="1.0" xmlns="http://www.w3.org/2000/svg"
 width="103.000000pt" height="29.000000pt" viewBox="0 0 103.000000 29.000000"
 preserveAspectRatio="xMidYMid meet">

<g transform="translate(0.000000,29.000000) scale(0.100000,-0.100000)"
fill="#000000" stroke="none">
<path d="M39 280 c-21 -12 -43 -65 -35 -85 8 -21 28 -19 22 3 -3 9 1 31 9 47
12 28 13 22 15 -75 1 -96 2 -103 16 -85 11 15 14 42 12 109 -3 90 -9 103 -39
86z"/>
<path d="M333 270 c-3 -11 -12 -20 -19 -20 -8 0 -14 -4 -14 -10 0 -5 7 -10 16
-10 14 0 16 -9 12 -50 -3 -27 -1 -50 3 -50 5 0 9 -6 9 -14 0 -20 27 -27 40
-11 11 13 15 13 33 0 12 -8 26 -11 36 -6 17 8 89 7 98 -3 3 -3 15 0 27 6 17 8
15 5 -7 -20 -32 -33 -34 -75 -4 -80 29 -6 47 17 47 59 0 36 45 128 63 129 4 0
7 -15 7 -34 0 -37 25 -71 43 -59 16 10 78 11 99 1 10 -5 20 -4 23 2 5 8 11 8
20 0 16 -13 20 -7 29 44 6 29 10 36 17 25 5 -8 9 -24 9 -36 0 -12 5 -25 10
-28 10 -6 13 -2 26 50 l8 30 5 -40 c5 -34 9 -40 31 -40 17 0 26 6 28 20 3 18
2 19 -8 2 -18 -28 -30 -10 -30 44 0 42 -3 50 -17 47 -9 -2 -20 -14 -23 -28
l-6 -25 -7 28 c-8 30 -37 37 -37 10 -1 -17 -1 -17 -11 0 -17 28 -29 19 -29
-22 0 -44 -8 -71 -21 -71 -5 0 -9 25 -9 55 l0 55 -38 0 c-32 0 -41 -5 -50 -25
-7 -14 -12 -39 -12 -55 0 -31 -14 -40 -23 -16 -3 8 -3 31 0 50 5 32 3 36 -15
36 -11 0 -24 5 -27 10 -11 17 -25 0 -25 -29 0 -15 -7 -36 -15 -47 -13 -18 -14
-16 -15 27 0 45 0 46 -35 47 -39 2 -47 -8 -55 -61 -8 -56 -25 -50 -28 11 -3
52 -3 52 -37 52 -38 0 -46 -8 -60 -65 -14 -55 -29 -46 -33 20 -3 50 -1 55 18
55 11 0 20 5 20 10 0 6 -9 10 -20 10 -13 0 -20 7 -20 20 0 11 -5 20 -11 20 -6
0 -13 -9 -16 -20z m132 -89 c6 -21 -10 -71 -24 -71 -14 0 -24 38 -17 66 7 28
32 32 41 5z m123 -9 c4 -23 -14 -62 -27 -62 -13 0 -19 44 -9 69 10 27 32 23
36 -7z m212 -4 c0 -39 -13 -63 -29 -54 -12 8 -15 68 -4 79 17 18 33 5 33 -25z
m-219 -151 c-8 -8 -14 -8 -22 0 -8 8 -6 19 8 39 l18 28 3 -28 c2 -16 -1 -33
-7 -39z"/>
<path d="M110 161 c0 -74 13 -85 30 -26 7 25 19 50 27 56 11 10 13 6 8 -27
-10 -71 27 -85 63 -25 14 23 21 28 30 19 7 -7 12 -20 12 -31 0 -14 -5 -17 -20
-12 -23 7 -28 -10 -5 -19 16 -6 65 12 65 25 0 4 -11 21 -25 37 -16 19 -23 36
-19 47 5 13 2 16 -12 13 -11 -2 -21 -15 -25 -35 -3 -18 -13 -40 -20 -50 -12
-14 -15 -11 -19 33 -6 59 -30 71 -54 27 l-15 -28 -1 28 c0 15 -4 27 -10 27 -6
0 -10 -26 -10 -59z"/>
</g>
</svg>
